#!OML:ASF E:\motion texture\Top Level 1\Subject 1\Session 1\male.ASF
:FULLY-SPECIFIED
:DEGREES
285
root 16.5334 17.7547 5.36997 492.589 -73.7999 -492.76
lowerback 3.18989 3.48328 8.50172
upperback -0.498693 4.93055 4.14958
thorax -1.95546 2.31935 -0.666681
lowerneck -19.8422 -4.56533 -6.42024
upperneck 15.0631 -6.07507 8.24987
head 8.40461 -2.42683 3.03488
rclavicle 3.32906e-014 3.63776e-014
rhumerus 8.05388 16.1347 -80.3902
rradius 71.6687
rwrist -8.42832
rhand -12.0537 -14.5931
rfingers 7.12502
rthumb 14.0052 -44.1013
lclavicle 3.32906e-014 3.63776e-014
lhumerus -65.4188 -5.10906 73.6428
lradius 35.3465
lwrist -10.6314
lhand -1.30716 12.8264
lfingers 7.12502
lthumb 24.3378 41.3011
rfemur 8.4268 8.14314 39.0532
rtibia 23.6772
rfoot 345.645 -2.10605
rtoes 5.16986
lfemur -85.7851 6.89109 -7.32536
ltibia 81.3568
lfoot 558.192 30.7931
ltoes 0.567304
286
root 16.3691 17.743 5.36946 493.357 -73.7326 -493.199
lowerback 2.83593 3.55215 8.45854
upperback -0.595696 4.98725 4.08179
thorax -1.85094 2.35086 -0.694068
lowerneck -19.7556 -4.56644 -6.43752
upperneck 15.049 -6.08917 8.31116
head 8.38884 -2.43107 3.05739
rclavicle -2.60136e-014 8.59744e-015
rhumerus 7.50513 16.1229 -80.6476
rradius 71.7314
rwrist -8.46602
rhand -12.0391 -14.6561
rfingers 7.12502
rthumb 14.0193 -44.1633
lclavicle -2.60136e-014 8.59744e-015
lhumerus -65.2914 -5.36359 73.9163
lradius 35.564
lwrist -10.5916
lhand -1.2419 12.7088
lfingers 7.12502
lthumb 24.4003 41.1752
rfemur 8.60929 8.23006 38.8982
rtibia 23.7302
rfoot 345.694 -1.97767
rtoes 4.53495
lfemur -84.5691 7.09436 -7.33255
ltibia 83.7636
lfoot 560.587 48.0524
ltoes -0.153092
287
root 16.2023 17.7309 5.36929 494.158 -73.6409 -493.652
lowerback 2.45439 3.62619 8.43785
upperback -0.693429 5.04803 4.01463
thorax -1.72946 2.38442 -0.730471
lowerneck -19.7136 -4.57103 -6.45291
upperneck 15.0674 -6.10569 8.35935
head 8.39137 -2.43612 3.07458
rclavicle 2.65461e-014 1.11816e-014
rhumerus 6.89918 16.1447 -80.9155
rradius 71.7326
rwrist -8.52947
rhand -11.9996 -14.7066
rfingers 7.12502
rthumb 14.0574 -44.2112
lclavicle 2.65461e-014 1.11816e-014
lhumerus -65.1087 -5.58541 74.1787
lradius 35.8064
lwrist -10.5657
lhand -1.17833 12.5879
lfingers 7.12502
lthumb 24.4613 41.046
rfemur 8.79081 8.31942 38.741
rtibia 23.7581
rfoot 345.76 -1.81712
rtoes 3.88264
lfemur -83.21 7.34195 -7.32748
ltibia 86.1932
lfoot 565.51 65.0982
ltoes -0.710731
288
root 16.0329 17.7185 5.36936 494.961 -73.5303 -494.099
lowerback 2.06492 3.70116 8.43588
upperback -0.82372 5.11192 3.95078
thorax -1.63581 2.41728 -0.773605
lowerneck -19.5866 -4.56574 -6.47531
upperneck 15.0844 -6.111 8.4039
head 8.37786 -2.439 3.09407
rclavicle -4.25425e-014 1.82385e-014
rhumerus 6.16798 16.204 -81.218
rradius 71.6732
rwrist -8.59703
rhand -11.9371 -14.7511
rfingers 7.12502
rthumb 14.1177 -44.2515
lclavicle -4.25425e-014 1.82385e-014
lhumerus -64.9495 -5.78919 74.4338
lradius 36.0893
lwrist -10.5357
lhand -1.11064 12.4861
lfingers 7.12502
lthumb 24.5262 40.9355
rfemur 8.97975 8.40854 38.5827
rtibia 23.7664
rfoot 345.84 -1.62362
rtoes 3.22547
lfemur -81.696 7.62293 -7.30972
ltibia 88.1231
lfoot 586.136 81.4232
ltoes -1.07647
289
root 15.8608 17.7059 5.36959 495.754 -73.4108 -494.532
lowerback 1.6607 3.77526 8.44899
upperback -0.938125 5.17148 3.88555
thorax -1.5161 2.4488 -0.823781
lowerneck -19.5456 -4.561 -6.48972
upperneck 15.1292 -6.11521 8.44294
head 8.38809 -2.43884 3.10988
rclavicle -9.74443e-015 -1.69526e-014
rhumerus 5.41589 16.2854 -81.5289
rradius 71.5422
rwrist -8.65792
rhand -11.8623 -14.8092
rfingers 7.12502
rthumb 14.1897 -44.3046
lclavicle -9.74443e-015 -1.69526e-014
lhumerus -64.7082 -5.94191 74.6625
lradius 36.3931
lwrist -10.4943
lhand -1.03642 12.3932
lfingers 7.12502
lthumb 24.5973 40.8328
rfemur 9.18701 8.49916 38.4205
rtibia 23.748
rfoot 345.941 -1.40473
rtoes 2.582
lfemur -80.0218 7.92717 -7.28606
ltibia 89.1102
lfoot 714.603 79.7086
ltoes -1.24295
290
root 15.6858 17.6932 5.36984 496.531 -73.291 -494.949
lowerback 1.26565 3.84537 8.46303
upperback -1.06852 5.22772 3.82128
thorax -1.41833 2.47733 -0.874035
lowerneck -19.4977 -4.54807 -6.49969
upperneck 15.1826 -6.10976 8.47766
head 8.39892 -2.43441 3.12497
rclavicle 1.02428e-014 2.01642e-014
rhumerus 4.57798 16.3942 -81.864
rradius 71.3383
rwrist -8.69898
rhand -11.8082 -14.8497
rfingers 7.12502
rthumb 14.2418 -44.3414
lclavicle 1.02428e-014 2.01642e-014
lhumerus -64.4563 -6.06377 74.8806
lradius 36.7283
lwrist -10.4139
lhand -0.970274 12.3295
lfingers 7.12502
lthumb 24.6607 40.7605
rfemur 9.41593 8.58735 38.2485
rtibia 23.7035
rfoot 346.074 -1.16234
rtoes 1.94401
lfemur -78.1836 8.24435 -7.26228
ltibia 88.8733
lfoot 730.939 63.4963
ltoes -1.23361
291
root 15.5074 17.6802 5.37021 497.328 -73.167 -495.393
lowerback 0.861422 3.91324 8.47634
upperback -1.20042 5.2796 3.75467
thorax -1.31703 2.5036 -0.925001
lowerneck -19.4598 -4.52825 -6.50018
upperneck 15.248 -6.09662 8.5059
head 8.41438 -2.42608 3.13735
rclavicle 5.09386e-015 4.39563e-014
rhumerus 3.68044 16.534 -82.2212
rradius 71.0576
rwrist -8.71629
rhand -11.7663 -14.8952
rfingers 7.12502
rthumb 14.2822 -44.384
lclavicle 5.09386e-015 4.39563e-014
lhumerus -64.1813 -6.13276 75.0695
lradius 37.0865
lwrist -10.3102
lhand -0.931856 12.2684
lfingers 7.12502
lthumb 24.6975 40.6944
rfemur 9.65649 8.66442 38.0508
rtibia 23.662
rfoot 346.235 -0.874267
rtoes 1.32539
lfemur -76.171 8.57866 -7.24196
ltibia 87.3466
lfoot 735.93 47.0276
ltoes -1.07547
292
root 15.3255 17.667 5.37051 498.115 -73.0582 -495.838
lowerback 0.462959 3.97226 8.47639
upperback -1.32392 5.31949 3.68438
thorax -1.21189 2.52432 -0.972085
lowerneck -19.4994 -4.50422 -6.48512
upperneck 15.3405 -6.07842 8.52789
head 8.45134 -2.41268 3.14524
rclavicle -3.6786e-014 -6.06293e-015
rhumerus 2.74195 16.6916 -82.5943
rradius 70.6979
rwrist -8.70361
rhand -11.7254 -14.9604
rfingers 7.12502
rthumb 14.3216 -44.4464
lclavicle -3.6786e-014 -6.06293e-015
lhumerus -63.8503 -6.1514 75.2394
lradius 37.4539
lwrist -10.1502
lhand -0.916348 12.2239
lfingers 7.12502
lthumb 24.7124 40.6478
rfemur 9.91474 8.72406 37.8239
rtibia 23.6151
rfoot 346.433 -0.555039
rtoes 0.73181
lfemur -73.9855 8.90472 -7.23036
ltibia 84.7176
lfoot 738.895 30.6872
ltoes -0.814658
293
root 15.1393 17.6534 5.37093 498.94 -72.9536 -496.337
lowerback 0.0545949 4.02516 8.46255
upperback -1.46684 5.35121 3.61256
thorax -1.12307 2.53994 -1.01293
lowerneck -19.4592 -4.46196 -6.46584
upperneck 15.4209 -6.03997 8.54809
head 8.46845 -2.39203 3.1553
rclavicle -2.92229e-014 -1.10325e-014
rhumerus 1.69239 16.8871 -83.0037
rradius 70.2627
rwrist -8.66509
rhand -11.7004 -15.0312
rfingers 7.12502
rthumb 14.3457 -44.5155
lclavicle -2.92229e-014 -1.10325e-014
lhumerus -63.5396 -6.12013 75.3905
lradius 37.8323
lwrist -9.93655
lhand -0.905712 12.2175
lfingers 7.12502
lthumb 24.7226 40.64
rfemur 10.187 8.76724 37.5554
rtibia 23.5855
rfoot 346.673 -0.181539
rtoes 0.19242
lfemur -71.6171 9.22949 -7.22569
ltibia 81.4251
lfoot 741.019 14.5001
ltoes -0.511492
294
root 14.9485 17.6392 5.37154 499.781 -72.8643 -496.87
lowerback -0.35502 4.0686 8.42868
upperback -1.60678 5.36991 3.53955
thorax -1.03312 2.54932 -1.04375
lowerneck -19.4604 -4.4131 -6.43576
upperneck 15.5273 -5.993 8.5578
head 8.50017 -2.36636 3.16104
rclavicle 1.4255e-014 -1.63997e-014
rhumerus 0.587495 17.1081 -83.4284
rradius 69.7466
rwrist -8.60264
rhand -11.6734 -15.1122
rfingers 7.12502
rthumb 14.3717 -44.5947
lclavicle 1.4255e-014 -1.63997e-014
lhumerus -63.1928 -6.02345 75.5214
lradius 38.2069
lwrist -9.6812
lhand -0.901609 12.2768
lfingers 7.12502
lthumb 24.7265 40.6988
rfemur 10.4627 8.78149 37.24
rtibia 23.5882
rfoot 346.963 0.240624
rtoes -0.322783
lfemur -69.0725 9.52729 -7.22654
ltibia 78.1105
lfoot 742.617 -1.52682
ltoes -0.158565
295
root 14.7532 17.6241 5.37237 500.631 -72.7937 -497.431
lowerback -0.78203 4.10124 8.37767
upperback -1.73822 5.37177 3.46452
thorax -0.927257 2.55115 -1.06573
lowerneck -19.4896 -4.35663 -6.39541
upperneck 15.6503 -5.93657 8.55961
head 8.54109 -2.33548 3.16363
rclavicle -2.71652e-014 5.24792e-014
rhumerus -0.571413 17.355 -83.8646
rradius 69.1507
rwrist -8.52486
rhand -11.6574 -15.1931
rfingers 7.12502
rthumb 14.3871 -44.6745
lclavicle -2.71652e-014 5.24792e-014
lhumerus -62.8054 -5.86662 75.6379
lradius 38.5714
lwrist -9.39664
lhand -0.909094 12.327
lfingers 7.12502
lthumb 24.7193 40.75
rfemur 10.7297 8.76388 36.8769
rtibia 23.6436
rfoot 347.312 0.714113
rtoes -0.794626
lfemur -66.3557 9.77612 -7.22363
ltibia 74.9372
lfoot 742.908 -1.40608
ltoes 0.233456
296
root 14.5528 17.6079 5.37372 501.488 -72.7409 -498.024
lowerback -1.2124 4.12333 8.30864
upperback -1.87401 5.35981 3.39068
thorax -0.826889 2.54584 -1.07696
lowerneck -19.5108 -4.29218 -6.34867
upperneck 15.789 -5.87076 8.55167
head 8.58465 -2.30087 3.16339
rclavicle -1.78596e-015 -1.94809e-014
rhumerus -1.81263 17.6231 -84.3168
rradius 68.4781
rwrist -8.43745
rhand -11.634 -15.2766
rfingers 7.12502
rthumb 14.4097 -44.7564
lclavicle -1.78596e-015 -1.94809e-014
lhumerus -62.4033 -5.65184 75.7464
lradius 38.9188
lwrist -9.11779
lhand -0.926374 12.4071
lfingers 7.12502
lthumb 24.7028 40.8324
rfemur 10.9825 8.70968 36.4625
rtibia 23.7748
rfoot 347.728 1.24039
rtoes -1.22131
lfemur -63.4683 9.95725 -7.21011
ltibia 71.5954
lfoot 743.049 -0.9473
ltoes 0.599092
297
root 14.3468 17.5903 5.3758 502.36 -72.6994 -498.664
lowerback -1.64915 4.13872 8.22727
upperback -1.99342 5.3377 3.31704
thorax -0.707924 2.53651 -1.08043
lowerneck -19.5784 -4.22616 -6.29131
upperneck 15.9496 -5.80233 8.53144
head 8.64297 -2.26413 3.15743
rclavicle 1.13618e-014 2.05742e-014
rhumerus -3.09783 17.9015 -84.7712
rradius 67.7264
rwrist -8.34934
rhand -11.6159 -15.3518
rfingers 7.12502
rthumb 14.4271 -44.8304
lclavicle 1.13618e-014 2.05742e-014
lhumerus -61.95 -5.38312 75.8545
lradius 39.2449
lwrist -8.86627
lhand -0.962542 12.4817
lfingers 7.12502
lthumb 24.6681 40.9117
rfemur 11.2135 8.6169 35.9947
rtibia 24.0077
rfoot 348.219 1.81774
rtoes -1.62605
lfemur -60.4055 10.053 -7.17361
ltibia 68.0992
lfoot 742.818 -0.408011
ltoes 0.214391
